<?xml version="1.0" encoding="UTF-8"?>
<svg id="Capa_1" data-name="Capa 1" xmlns="http://www.w3.org/2000/svg" viewBox="0 0 92.39 92.39">
  <defs>
    <style>
      .cls-1 {
        fill: #616c5e;
        stroke-width: 0px;
      }
    </style>
  </defs>
  <path class="cls-1" d="M55.85,37.19c-.15,1.45-.31,2.76-.44,4.08-.27,2.75-.53,5.5-.8,8.26-.05.49-.21.93-.82.85-.59-.08-.66-.49-.61-1.01.34-3.3.67-6.6,1.01-9.9.1-1,.2-2,.32-3.11-.9-.38-1.8-.77-2.8-1.2-.23,2.31-.44,4.48-.66,6.65-.22,2.18-.42,4.35-.66,6.53-.14,1.27-1.01,2.02-2.29,2.03-1.26.01-2.52.01-3.77,0-1.3-.01-2.17-.75-2.31-2.02-.28-2.62-.53-5.25-.79-7.88-.17-1.72-.35-3.44-.54-5.31-.92.41-1.76.76-2.59,1.17-.11.05-.17.34-.15.51.24,2.5.49,5,.74,7.5.17,1.68.34,3.35.53,5.02.05.49-.06.88-.58.97-.59.1-.8-.31-.85-.81-.17-1.73-.34-3.45-.5-5.18-.21-2.15-.41-4.3-.63-6.46-.02-.19-.09-.38-.15-.64-2.26,1.5-4.02,3.39-5.37,5.68-1.59,2.7-2.33,5.65-2.4,8.77,0,.2,0,.4,0,.6,0,.46-.12.8-.66.81-.57.01-.74-.36-.72-.84.04-1.03,0-2.08.17-3.09,1.1-6.74,4.71-11.62,10.87-14.59.18-.09.37-.16.56-.23.93-.34,1.74-.67,2.13-1.81.37-1.07,1.44-1.65,2.58-1.69,1.78-.07,3.57-.08,5.34.06,1.36.11,2.24,1,2.7,2.32.09.28.4.57.67.68,6.86,2.6,11.05,7.47,12.41,14.69.22,1.15.22,2.35.3,3.52.03.51-.05,1-.73.98-.65-.02-.65-.5-.65-.97-.04-5.66-2.14-10.36-6.53-13.99-.38-.32-.79-.59-1.3-.97ZM46.24,32.22c-.73,0-1.46-.02-2.19,0-1.37.06-2.15.98-2.01,2.34.25,2.42.49,4.85.72,7.27.2,2,.38,4,.58,6,.09.94.29,1.12,1.23,1.13,1.06,0,2.11,0,3.17,0,1.03,0,1.22-.19,1.32-1.2.43-4.4.86-8.8,1.3-13.19.13-1.36-.64-2.29-2.01-2.34-.7-.03-1.41,0-2.11,0Z"/>
  <path class="cls-1" d="M46.19,54.56c5.86,0,11.72.02,17.59-.01,1.34,0,2.53.28,3.06,1.59.57,1.41.63,2.91-.26,4.26-.52.79-1.35,1.09-2.27,1.15-.2.01-.4,0-.6,0-11.67,0-23.35,0-35.02,0-1.32,0-2.53-.27-3.1-1.55-.62-1.4-.65-2.9.18-4.27.44-.72,1.15-1.11,2.01-1.16.35-.02.7-.03,1.06-.03,5.79,0,11.57,0,17.36,0ZM46.19,55.96c-5.89,0-11.77,0-17.66,0-.42,0-.88.03-1.23.22-.97.53-.94,3.22.04,3.72.38.19.87.22,1.31.22,11.7.01,23.39,0,35.09,0,.28,0,.56.01.83-.03.67-.12,1.08-.51,1.14-1.21.03-.33.02-.65.02-.98,0-1.59-.36-1.95-1.95-1.95-5.86,0-11.72,0-17.58,0Z"/>
</svg>