<?xml version="1.0" encoding="UTF-8"?>
<svg id="Capa_1" data-name="Capa 1" xmlns="http://www.w3.org/2000/svg" viewBox="0 0 92.39 92.39">
  <defs>
    <style>
      .cls-1 {
        fill: #616c5e;
        stroke-width: 0px;
      }
    </style>
  </defs>
  <path class="cls-1" d="M64.28,42.85c-.07-.08-.14-.14-.22-.2-1.09-.8-2.18-1.6-3.28-2.4-2.02-1.49-4.05-2.97-6.07-4.46-1.59-1.17-3.18-2.34-4.77-3.51-1.03-.75-2.05-1.51-3.08-2.25-.45-.32-.89-.3-1.33.03-.46.35-.91.7-1.37,1.04-2.01,1.47-4.02,2.93-6.03,4.4-2.76,2.02-5.52,4.04-8.27,6.08-.6.44-1.25.83-1.76,1.38v1.19c.55.48.94.5,1.54.1,1.27-.86,2.45-1.83,3.7-2.72,1.97-1.4,3.9-2.86,5.85-4.29,2.12-1.56,4.24-3.11,6.36-4.66.68-.5.67-.5,1.34,0,.07.06.15.11.22.17,1.35.94,2.67,1.93,3.99,2.91,1.99,1.46,3.98,2.91,5.96,4.37,1.93,1.42,3.86,2.83,5.79,4.25.2.15.42.23.68.25.32.01.54-.12.75-.33v-1.34Z"/>
  <path class="cls-1" d="M60.53,53.51c0,2.62,0,5.24,0,7.85,0,.87-.47,1.28-1.34,1.2-.68-.06-1.35,0-2.03.01-.92.02-1.84,0-2.76,0-.87,0-1.75.06-2.62-.01-.28-.02-.56,0-.84.02-.38.03-.75.03-1.12-.05-.42-.09-.74-.43-.76-.85-.02-.57-.06-1.14-.03-1.71.04-.92-.01-1.84-.01-2.76,0-.9.03-1.8.02-2.69-.01-.87.08-1.76-.06-2.62-.16-1.03-.75-1.8-1.74-2.15-1.05-.38-2.03-.22-2.89.58-.74.69-.94,1.54-.9,2.51.04.86,0,1.73,0,2.59,0,.97.02,1.94,0,2.9-.03,1.14.05,2.29-.04,3.43-.04.44-.4.78-.84.8-.7.04-1.4.03-2.1.04-.85,0-1.7-.04-2.55,0-.88.04-1.77,0-2.66-.02-.14,0-.28-.02-.42,0-.61.07-1.21.04-1.82,0-.72-.05-1.07-.38-1.07-1.11,0-1.46,0-2.92,0-4.38,0-3.76,0-7.53,0-11.29,0-.17,0-.35.04-.52.12-.52.56-.86,1.03-.81.5.05.91.46.92.99.02.9,0,1.8,0,2.7,0,3.95,0,7.9,0,11.85,0,.57,0,.57.56.57,2.16,0,4.32,0,6.49,0,.34,0,.44-.11.44-.44,0-2.57,0-5.14,0-7.71,0-2.1,1.24-3.91,3.22-4.6,1.83-.64,3.51-.25,4.91,1.05.99.91,1.49,2.12,1.49,3.48,0,2.59,0,5.19,0,7.78,0,.43,0,.44.46.44,2.2,0,4.39,0,6.59,0,.34,0,.44-.1.44-.44,0-4.83,0-9.65,0-14.48,0-.26-.02-.51.15-.74.27-.37.7-.53,1.11-.41.45.14.72.48.73,1,.01,1,0,2.01,0,3.02,0,1.67,0,3.34,0,5.01Z"/>
</svg>