<?xml version="1.0" encoding="UTF-8"?>
<svg id="Capa_1" data-name="Capa 1" xmlns="http://www.w3.org/2000/svg" viewBox="0 0 92.39 92.39">
  <defs>
    <style>
      .cls-1 {
        fill: #616c5e;
        stroke-width: 0px;
      }
    </style>
  </defs>
  <path class="cls-1" d="M31.03,66.43c-.35,0-.71.01-1.05,0-1.33-.05-2.23-.88-2.39-2.2-.04-.29-.03-.6-.03-.89,0-10.67,0-21.34-.01-32.02,0-.74.2-1.28.74-1.8,2.18-2.12,4.32-4.28,6.45-6.45.47-.48.95-.69,1.64-.69,7.33.02,14.67.01,22,.02,2.02,0,2.86.82,2.91,2.86,0,.2.03.4.06.71.38,0,.73-.01,1.08,0,1.4.05,2.34.96,2.43,2.35.02.24,0,.48,0,.72,0,12.64,0,25.28,0,37.92,0,2.23-.83,3.06-3.07,3.06-9.12,0-18.24,0-27.37,0-2.49,0-3.14-.62-3.29-3.13,0-.11-.04-.23-.09-.44ZM28.91,31.15c-.02.39-.05.68-.05.97,0,10.46,0,20.92,0,31.38,0,1.41.26,1.66,1.68,1.66,9.24,0,18.48,0,27.71,0,1.43,0,1.74-.31,1.75-1.71,0-12.69,0-25.39,0-38.08,0-1.36-.33-1.7-1.67-1.7-7,0-14.01,0-21.01,0-.29,0-.58.02-.97.04,0,1.69,0,3.32,0,4.95,0,1.78-.73,2.49-2.5,2.5-1.63,0-3.26,0-4.94,0ZM61.27,27.32v1.21c0,11.62,0,23.25,0,34.87,0,2.19-.83,3.03-3,3.03-8.23,0-16.45,0-24.68,0h-1.03c-.35,1.73.11,2.33,1.73,2.32,9.15-.05,18.3-.02,27.45-.02,1.57,0,1.84-.28,1.84-1.89,0-12.55,0-25.1,0-37.65,0-1.82-.34-2.11-2.31-1.88ZM35.04,25.04c-1.62,1.6-3.29,3.25-4.92,4.85,1.26,0,2.63,0,3.99,0,.61,0,.93-.29.93-.93-.01-1.37,0-2.73,0-3.92Z"/>
  <path class="cls-1" d="M44.38,35.05c-3.4,0-6.79,0-10.19,0-.24,0-.52.07-.7-.04-.25-.14-.41-.42-.61-.64.22-.2.42-.43.67-.58.13-.08.35-.03.53-.03,6.88,0,13.76,0,20.64,0,.24,0,.51-.04.7.05.2.1.48.36.47.52-.02.23-.23.52-.45.64-.21.12-.52.06-.79.06-3.42,0-6.85,0-10.27,0Z"/>
  <path class="cls-1" d="M44.36,48.39c-2.8,0-5.6,0-8.4,0-.49,0-1.06.03-1.06-.63,0-.66.55-.65,1.05-.65,5.66,0,11.31,0,16.97,0,.5,0,1.04.03,1.02.69-.02.61-.54.6-1.01.6-2.86,0-5.72,0-8.58,0Z"/>
  <path class="cls-1" d="M44.3,55.07c-2.09,0-4.17,0-6.26,0-.45,0-.99.02-1.01-.6-.02-.68.52-.69,1.02-.69,4.26,0,8.52,0,12.79,0,.47,0,.97.02.97.65,0,.63-.52.64-.97.64-2.18,0-4.35,0-6.53,0Z"/>
  <path class="cls-1" d="M44.3,41.72c-1.96,0-3.92,0-5.89,0-.18,0-.39.06-.53-.01-.3-.17-.55-.41-.82-.62.26-.22.52-.62.78-.62,4.37-.04,8.74-.04,13.11,0,.28,0,.55.39.83.59-.29.22-.59.62-.89.63-2.2.05-4.4.03-6.6.03Z"/>
</svg>