<?xml version="1.0" encoding="utf-8"?>
<!-- Generator: Adobe Illustrator 28.3.0, SVG Export Plug-In . SVG Version: 6.00 Build 0)  -->
<svg version="1.1" id="Capa_2_00000044159516913688507200000012552088210687603623_"
	 xmlns="http://www.w3.org/2000/svg" xmlns:xlink="http://www.w3.org/1999/xlink" x="0px" y="0px" viewBox="0 0 177.5 38.8"
	 style="enable-background:new 0 0 177.5 38.8;" xml:space="preserve">
<style type="text/css">
	.st0{fill:#FFFFFF;}
</style>
<g id="Capa_1-2">
	<g>
		<g>
			<polygon class="st0" points="19.7,13.1 23.1,13.1 23.1,7.2 11.5,0 0,7.2 0,13.1 3.6,13.1 11.4,8.3 			"/>
			<polygon class="st0" points="4.2,15.4 0,17.4 0,23.7 7.6,23.7 7.6,29.2 15.5,29.2 15.5,23.7 23.1,23.7 23.1,17.7 19,15.4 
				4.2,15.4 4.2,15.4 			"/>
		</g>
		<g>
			<g>
				<path class="st0" d="M33.4,18.1h-3.9v-2.7h11.2v2.7h-3.9v11.1h-3.4C33.4,29.2,33.4,18.1,33.4,18.1z"/>
				<path class="st0" d="M46.9,22.3c0-4.4,3.2-7,7.4-7s7.4,2.6,7.4,7s-3.2,7.2-7.4,7.2S46.9,26.8,46.9,22.3z M58.2,22.3
					c0-2.7-1.7-4.4-3.8-4.4s-3.8,1.6-3.8,4.4s1.7,4.4,3.8,4.4S58.2,25.1,58.2,22.3z"/>
				<path class="st0" d="M69.2,15.4h5.4l2.9,9.2h0l2.9-9.2h5.2v13.8h-3.4l0.1-10.8h0l-3.5,10.8h-2.9l-3.5-10.8h0l0.1,10.8h-3.2
					L69.2,15.4L69.2,15.4z"/>
				<path class="st0" d="M102.8,26.4h-5.5l-0.9,2.8h-3.5l5.3-13.8h4.3l5.3,13.8h-4C103.7,29.2,102.8,26.4,102.8,26.4z M102.1,24.3
					l-2-6h0l-2,6H102.1z"/>
				<path class="st0" d="M114.5,27l7.3-8.8v0h-7.1v-2.7H126v2.5l-7.1,8.6v0h7.1v2.7h-11.4C114.5,29.2,114.5,27,114.5,27z"/>
				<path class="st0" d="M133.4,15.4h3.4v13.8h-3.4C133.4,29.2,133.4,15.4,133.4,15.4z"/>
				<path class="st0" d="M144.7,15.4h4.9l5.4,9.3h0l-0.1-9.3h3.2v13.8h-4.1l-6.3-10.7h0l0.1,10.7h-3.2
					C144.7,29.2,144.7,15.4,144.7,15.4z"/>
				<path class="st0" d="M166,15.4h3.4v13.8H166C166,29.2,166,15.4,166,15.4z"/>
			</g>
			<g>
				<path class="st0" d="M133.6,36.2c0-1.7,1.1-2.7,2.7-2.7c1.3,0,2.3,0.7,2.3,1.9c0,0.1,0,0.2,0,0.3h-0.8c0-0.1,0-0.2,0-0.2
					c0-0.7-0.6-1.2-1.4-1.2c-1,0-1.7,0.8-1.7,2s0.8,1.9,1.7,1.9c0.8,0,1.4-0.5,1.4-1.2v-0.1h-1.6v-0.6h2.5v2.6h-0.8
					c0-0.2,0-0.6,0.1-0.9l0,0c-0.2,0.6-0.7,1-1.7,1C134.7,38.9,133.6,37.9,133.6,36.2L133.6,36.2z"/>
				<path class="st0" d="M141.8,33.6h2.3c1.3,0,2,0.6,2,1.5c0,0.7-0.3,1.1-0.9,1.2v0c0.6,0.1,0.9,0.5,0.9,1.2v1.3h-0.9v-1.2
					c0-0.5-0.2-0.8-0.9-0.8h-1.5v2.1h-0.9V33.6L141.8,33.6z M144.1,36.1c0.8,0,1.1-0.3,1.1-0.9c0-0.5-0.4-0.8-1.1-0.8h-1.3v1.7
					H144.1L144.1,36.1z"/>
				<path class="st0" d="M149,36.1c0-1.7,1.2-2.7,2.7-2.7s2.7,1,2.7,2.7s-1.2,2.7-2.7,2.7S149,37.8,149,36.1z M153.4,36.1
					c0-1.2-0.8-1.9-1.7-1.9S150,35,150,36.1s0.8,1.9,1.7,1.9S153.4,37.3,153.4,36.1z"/>
				<path class="st0" d="M157.4,36.8v-3.2h0.9v3.2c0,0.8,0.5,1.2,1.4,1.2s1.4-0.5,1.4-1.2v-3.2h0.8v3.2c0,1.2-0.9,2-2.3,2
					S157.4,38,157.4,36.8z"/>
				<path class="st0" d="M165.1,33.6h2.1c1.3,0,2,0.7,2,1.8s-0.7,1.8-1.9,1.8h-1.3v1.6h-0.9L165.1,33.6L165.1,33.6z M167.4,36.5
					c0.7,0,1.1-0.3,1.1-1.1s-0.4-1.1-1.2-1.1h-1.2v2.1L167.4,36.5L167.4,36.5z"/>
			</g>
			<g>
				<path class="st0" d="M171.5,15.4h0.5v1.8h0.9v0.5h-1.4C171.5,17.7,171.5,15.4,171.5,15.4z"/>
				<path class="st0" d="M173.5,15.4h0.5v1.8h0.9v0.5h-1.4C173.5,17.7,173.5,15.4,173.5,15.4z"/>
				<path class="st0" d="M177,16c-0.1-0.1-0.1-0.1-0.2-0.1c-0.1,0-0.1-0.1-0.2-0.1s-0.2,0-0.3,0.1c-0.1,0-0.1,0.1-0.2,0.2
					c-0.1,0.1-0.1,0.1-0.1,0.2s-0.1,0.2-0.1,0.3s0,0.2,0.1,0.3c0,0.1,0.1,0.2,0.1,0.2s0.1,0.1,0.2,0.1c0.1,0,0.2,0,0.2,0
					c0.1,0,0.2,0,0.3-0.1c0.1,0,0.1-0.1,0.2-0.2l0.4,0.3c-0.1,0.1-0.2,0.2-0.4,0.3c-0.1,0.1-0.3,0.1-0.5,0.1c-0.2,0-0.3,0-0.5-0.1
					c-0.1-0.1-0.3-0.1-0.4-0.2s-0.2-0.2-0.3-0.4c-0.1-0.1-0.1-0.3-0.1-0.5s0-0.4,0.1-0.5c0.1-0.1,0.1-0.3,0.3-0.4s0.2-0.2,0.4-0.2
					c0.1-0.1,0.3-0.1,0.5-0.1c0.1,0,0.1,0,0.2,0c0.1,0,0.1,0,0.2,0.1s0.1,0.1,0.2,0.1s0.1,0.1,0.2,0.2L177,16L177,16z"/>
			</g>
		</g>
	</g>
</g>
</svg>
