<?xml version="1.0" encoding="UTF-8"?>
<svg id="Capa_2" data-name="Capa 2" xmlns="http://www.w3.org/2000/svg" viewBox="0 0 177.48 38.83">
  <defs>
    <style>
      .cls-1 {
        fill: #667667;
        stroke-width: 0px;
      }
    </style>
  </defs>
  <g id="Capa_1-2" data-name="Capa 1">
    <g>
      <g>
        <polygon class="cls-1" points="19.73 13.1 23.08 13.1 23.08 7.18 11.54 0 0 7.18 0 13.1 3.58 13.1 11.39 8.3 19.73 13.1"/>
        <polygon class="cls-1" points="4.22 15.38 0 17.44 0 23.67 7.56 23.67 7.56 29.22 15.51 29.22 15.51 23.67 23.08 23.67 23.08 17.72 18.96 15.38 4.23 15.38 4.23 15.38 4.22 15.38"/>
      </g>
      <g>
        <g>
          <path class="cls-1" d="M33.37,18.14h-3.92v-2.7h11.25v2.7h-3.9v11.08h-3.43v-11.08Z"/>
          <path class="cls-1" d="M46.92,22.26c0-4.42,3.23-7.04,7.39-7.04s7.39,2.62,7.39,7.04-3.23,7.16-7.39,7.16-7.39-2.66-7.39-7.16ZM58.15,22.28c0-2.74-1.65-4.36-3.83-4.36s-3.83,1.61-3.83,4.36,1.65,4.44,3.83,4.44,3.83-1.65,3.83-4.44Z"/>
          <path class="cls-1" d="M69.15,15.43h5.38l2.95,9.17h.04l2.93-9.17h5.21v13.78h-3.43l.08-10.83h-.04l-3.48,10.83h-2.95l-3.5-10.83h-.04l.06,10.83h-3.23v-13.78Z"/>
          <path class="cls-1" d="M102.8,26.41h-5.51l-.94,2.81h-3.52l5.32-13.78h4.27l5.32,13.78h-4l-.94-2.81ZM102.09,24.27l-2.03-6.03h-.04l-2.01,6.03h4.08Z"/>
          <path class="cls-1" d="M114.49,26.95l7.27-8.78v-.04h-7.14v-2.7h11.37v2.47l-7.12,8.57v.04h7.06v2.7h-11.44v-2.26Z"/>
          <path class="cls-1" d="M133.4,15.43h3.43v13.78h-3.43v-13.78Z"/>
          <path class="cls-1" d="M144.69,15.43h4.94l5.4,9.26h.02l-.1-9.26h3.23v13.78h-4.06l-6.26-10.68h-.02l.08,10.68h-3.23v-13.78Z"/>
          <path class="cls-1" d="M166.03,15.43h3.43v13.78h-3.43v-13.78Z"/>
        </g>
        <g>
          <path class="cls-1" d="M133.61,36.21c0-1.66,1.15-2.73,2.68-2.73,1.31,0,2.3.7,2.3,1.89,0,.09,0,.21-.02.31h-.84c0-.09,0-.18,0-.25,0-.73-.63-1.15-1.43-1.15-1,0-1.74.75-1.74,1.95s.77,1.88,1.7,1.88c.83,0,1.44-.48,1.44-1.18v-.12h-1.61v-.6h2.52v2.56h-.79c.02-.21.04-.58.05-.93h0c-.16.6-.74,1.01-1.69,1.01-1.48,0-2.58-.99-2.58-2.62Z"/>
          <path class="cls-1" d="M141.78,33.56h2.28c1.33,0,2.02.58,2.02,1.51,0,.67-.29,1.13-.9,1.24v.02c.63.09.87.54.87,1.16v1.27h-.95v-1.25c0-.52-.21-.8-.91-.8h-1.46v2.06h-.95v-5.19ZM144.08,36.07c.77,0,1.1-.33,1.1-.88,0-.52-.36-.84-1.12-.84h-1.33v1.72h1.35Z"/>
          <path class="cls-1" d="M149.01,36.13c0-1.65,1.18-2.65,2.69-2.65s2.7,1,2.7,2.65-1.18,2.7-2.7,2.7-2.69-1.02-2.69-2.7ZM153.44,36.13c0-1.16-.77-1.86-1.74-1.86s-1.73.7-1.73,1.86.77,1.91,1.73,1.91,1.74-.72,1.74-1.91Z"/>
          <path class="cls-1" d="M157.41,36.79v-3.23h.94v3.22c0,.79.54,1.24,1.39,1.24s1.39-.45,1.39-1.24v-3.22h.84v3.23c0,1.25-.88,2.04-2.27,2.04s-2.29-.79-2.29-2.04Z"/>
          <path class="cls-1" d="M165.15,33.56h2.15c1.29,0,2.04.65,2.04,1.81s-.68,1.77-1.92,1.77h-1.32v1.61h-.95v-5.19ZM167.36,36.47c.69,0,1.08-.35,1.08-1.06s-.42-1.06-1.18-1.06h-1.17v2.12h1.26Z"/>
        </g>
        <g>
          <path class="cls-1" d="M171.48,15.42h.5v1.81h.93v.46h-1.43v-2.27Z"/>
          <path class="cls-1" d="M173.52,15.42h.5v1.81h.93v.46h-1.43v-2.27Z"/>
          <path class="cls-1" d="M177.04,16.01c-.05-.06-.11-.11-.18-.14-.07-.03-.15-.05-.25-.05s-.18.02-.26.05c-.08.04-.15.09-.21.15-.06.07-.1.14-.14.23s-.05.19-.05.29.02.21.05.29c.03.09.08.17.14.23s.13.12.2.15c.08.04.16.05.25.05.1,0,.19-.02.27-.06.08-.04.14-.1.2-.18l.42.31c-.1.14-.22.23-.37.3-.15.06-.3.1-.46.1-.18,0-.34-.03-.49-.08-.15-.06-.28-.14-.39-.24s-.19-.23-.26-.38c-.06-.15-.09-.31-.09-.49s.03-.35.09-.49c.06-.15.15-.27.26-.38s.24-.18.39-.24c.15-.06.31-.08.49-.08.06,0,.13,0,.2.02.07.01.14.03.21.06s.13.06.19.1.12.1.17.16l-.39.31Z"/>
        </g>
      </g>
    </g>
  </g>
</svg>