<?xml version="1.0" encoding="utf-8"?>
<!-- Generator: Adobe Illustrator 28.3.0, SVG Export Plug-In . SVG Version: 6.00 Build 0)  -->
<svg version="1.1" id="Capa_1" xmlns="http://www.w3.org/2000/svg" xmlns:xlink="http://www.w3.org/1999/xlink" x="0px" y="0px"
	 viewBox="0 0 176 84" style="enable-background:new 0 0 176 84;" xml:space="preserve">
<style type="text/css">
	.st0{fill:#F4F4F4;}
</style>
<g>
	<g>
		<polygon class="st0" points="94.9,19 99.7,19 99.7,10.6 83.3,0.3 66.8,10.6 66.8,19 71.9,19 83.1,12.2 		"/>
		<polygon class="st0" points="72.8,22.3 66.8,25.2 66.8,34.1 77.6,34.1 77.6,42 88.9,42 88.9,34.1 99.7,34.1 99.7,25.6 93.8,22.3 
			72.8,22.3 72.8,22.3 		"/>
	</g>
	<g>
		<g>
			<g>
				<path class="st0" d="M5,59.2H0.4V56h13.3v3.2H9.1v13.1H5V59.2z"/>
				<path class="st0" d="M21.1,64.1c0-5.2,3.8-8.3,8.8-8.3c4.9,0,8.8,3.1,8.8,8.3c0,5.3-3.8,8.5-8.8,8.5
					C24.9,72.5,21.1,69.4,21.1,64.1z M34.4,64.1c0-3.2-2-5.2-4.5-5.2c-2.6,0-4.5,1.9-4.5,5.2c0,3.3,2,5.3,4.5,5.3
					C32.4,69.3,34.4,67.4,34.4,64.1z"/>
				<path class="st0" d="M47.4,56h6.4l3.5,10.9h0L60.8,56h6.2v16.3h-4.1L63,59.5h0l-4.1,12.8h-3.5l-4.1-12.8h0l0.1,12.8h-3.8V56z"/>
				<path class="st0" d="M87.2,69h-6.5l-1.1,3.3h-4.2L81.7,56h5.1l6.3,16.3h-4.7L87.2,69z M86.4,66.4L84,59.3h0l-2.4,7.1H86.4z"/>
				<path class="st0" d="M101,69.6l8.6-10.4v0h-8.5V56h13.5v2.9L106.2,69v0h8.4v3.2H101V69.6z"/>
				<path class="st0" d="M123.4,56h4.1v16.3h-4.1V56z"/>
				<path class="st0" d="M136.8,56h5.9l6.4,11h0l-0.1-11h3.8v16.3H148l-7.4-12.6h0l0.1,12.6h-3.8V56z"/>
				<path class="st0" d="M162.1,56h4.1v16.3h-4.1V56z"/>
			</g>
		</g>
		<g>
			<path class="st0" d="M123.7,80.6c0-2,1.4-3.2,3.2-3.2c1.6,0,2.7,0.8,2.7,2.2c0,0.1,0,0.3,0,0.4h-1c0-0.1,0-0.2,0-0.3
				c0-0.9-0.7-1.4-1.7-1.4c-1.2,0-2.1,0.9-2.1,2.3c0,1.4,0.9,2.2,2,2.2c1,0,1.7-0.6,1.7-1.4v-0.1h-1.9v-0.7h3v3h-0.9
				c0-0.2,0-0.7,0.1-1.1h0c-0.2,0.7-0.9,1.2-2,1.2C125,83.7,123.7,82.5,123.7,80.6z"/>
			<path class="st0" d="M133.4,77.4h2.7c1.6,0,2.4,0.7,2.4,1.8c0,0.8-0.3,1.3-1.1,1.5v0c0.7,0.1,1,0.6,1,1.4v1.5h-1.1v-1.5
				c0-0.6-0.3-1-1.1-1h-1.7v2.4h-1.1V77.4z M136.1,80.4c0.9,0,1.3-0.4,1.3-1c0-0.6-0.4-1-1.3-1h-1.6v2H136.1z"/>
			<path class="st0" d="M141.9,80.5c0-2,1.4-3.1,3.2-3.1c1.8,0,3.2,1.2,3.2,3.1c0,2-1.4,3.2-3.2,3.2
				C143.3,83.7,141.9,82.5,141.9,80.5z M147.1,80.5c0-1.4-0.9-2.2-2.1-2.2c-1.1,0-2,0.8-2,2.2c0,1.4,0.9,2.3,2,2.3
				C146.2,82.7,147.1,81.9,147.1,80.5z"/>
			<path class="st0" d="M151.8,81.3v-3.8h1.1v3.8c0,0.9,0.6,1.5,1.6,1.5c1,0,1.6-0.5,1.6-1.5v-3.8h1v3.8c0,1.5-1,2.4-2.7,2.4
				C152.9,83.7,151.8,82.7,151.8,81.3z"/>
			<path class="st0" d="M161,77.4h2.5c1.5,0,2.4,0.8,2.4,2.1c0,1.3-0.8,2.1-2.3,2.1h-1.6v1.9H161V77.4z M163.6,80.9
				c0.8,0,1.3-0.4,1.3-1.3c0-0.8-0.5-1.3-1.4-1.3h-1.4v2.5H163.6z"/>
		</g>
		<g>
			<path class="st0" d="M168.5,56h0.6v2.1h1.1v0.5h-1.7V56z"/>
			<path class="st0" d="M170.9,56h0.6v2.1h1.1v0.5h-1.7V56z"/>
			<path class="st0" d="M175.1,56.7c-0.1-0.1-0.1-0.1-0.2-0.2c-0.1,0-0.2-0.1-0.3-0.1c-0.1,0-0.2,0-0.3,0.1c-0.1,0-0.2,0.1-0.2,0.2
				c-0.1,0.1-0.1,0.2-0.2,0.3c0,0.1-0.1,0.2-0.1,0.3c0,0.1,0,0.2,0.1,0.3c0,0.1,0.1,0.2,0.2,0.3c0.1,0.1,0.1,0.1,0.2,0.2
				c0.1,0,0.2,0.1,0.3,0.1c0.1,0,0.2,0,0.3-0.1c0.1-0.1,0.2-0.1,0.2-0.2l0.5,0.4c-0.1,0.2-0.3,0.3-0.4,0.4c-0.2,0.1-0.4,0.1-0.5,0.1
				c-0.2,0-0.4,0-0.6-0.1c-0.2-0.1-0.3-0.2-0.5-0.3c-0.1-0.1-0.2-0.3-0.3-0.4c-0.1-0.2-0.1-0.4-0.1-0.6c0-0.2,0-0.4,0.1-0.6
				c0.1-0.2,0.2-0.3,0.3-0.4c0.1-0.1,0.3-0.2,0.5-0.3c0.2-0.1,0.4-0.1,0.6-0.1c0.1,0,0.2,0,0.2,0c0.1,0,0.2,0,0.2,0.1
				s0.2,0.1,0.2,0.1c0.1,0.1,0.1,0.1,0.2,0.2L175.1,56.7z"/>
		</g>
	</g>
</g>
</svg>
