<?xml version="1.0" encoding="utf-8"?>
<!-- Generator: Adobe Illustrator 28.3.0, SVG Export Plug-In . SVG Version: 6.00 Build 0)  -->
<svg version="1.1" id="Capa_1" xmlns="http://www.w3.org/2000/svg" xmlns:xlink="http://www.w3.org/1999/xlink" x="0px" y="0px"
	 viewBox="0 0 250 119" style="enable-background:new 0 0 250 119;" xml:space="preserve">
<style type="text/css">
	.st0{fill:#5D6E5E;}
</style>
<g>
	<polygon class="st0" points="134.9,26.7 141.7,26.7 141.7,14.6 118.2,0 94.8,14.6 94.8,26.7 102.1,26.7 117.9,16.9 	"/>
	<polygon class="st0" points="103.3,31.3 94.8,35.5 94.8,48.2 110.1,48.2 110.1,59.5 126.3,59.5 126.3,48.2 141.7,48.2 141.7,36.1 
		133.3,31.3 103.4,31.3 	"/>
	<polygon class="st0" points="6.6,84 0,84 0,79.5 19,79.5 19,84 12.4,84 12.4,102.8 6.6,102.8 	"/>
	<path class="st0" d="M29.5,91c0-7.5,5.4-11.9,12.5-11.9c7,0,12.5,4.4,12.5,11.9c0,7.6-5.4,12.1-12.5,12.1
		C34.9,103.1,29.5,98.6,29.5,91 M48.5,91c0-4.6-2.8-7.4-6.5-7.4c-3.7,0-6.5,2.7-6.5,7.4c0,4.7,2.8,7.5,6.5,7.5
		C45.7,98.5,48.5,95.7,48.5,91"/>
	<polygon class="st0" points="67,79.5 76.1,79.5 81.1,95 81.2,95 86.1,79.5 94.9,79.5 94.9,102.8 89.1,102.8 89.3,84.5 89.2,84.5 
		83.3,102.8 78.4,102.8 72.4,84.5 72.4,84.5 72.5,102.8 67,102.8 	"/>
	<path class="st0" d="M123.9,98h-9.3l-1.6,4.7H107l9-23.3h7.2l9,23.3h-6.8L123.9,98z M122.7,94.4l-3.4-10.2h-0.1l-3.4,10.2H122.7z"
		/>
	<polygon class="st0" points="143.6,98.9 155.9,84.1 155.9,84 143.8,84 143.8,79.5 163,79.5 163,83.6 151,98.1 151,98.2 162.9,98.2 
		162.9,102.8 143.6,102.8 	"/>
	<rect x="175.6" y="79.5" class="st0" width="5.8" height="23.3"/>
	<polygon class="st0" points="194.6,79.5 203,79.5 212.1,95.1 212.1,95.1 212,79.5 217.4,79.5 217.4,102.8 210.5,102.8 200,84.7 
		199.9,84.7 200.1,102.8 194.6,102.8 	"/>
	<rect x="230.7" y="79.5" class="st0" width="5.8" height="23.3"/>
	<path class="st0" d="M175.9,114.6c0-2.8,1.9-4.6,4.5-4.6c2.2,0,3.9,1.2,3.9,3.2c0,0.1,0,0.4,0,0.5h-1.4c0-0.2,0-0.3,0-0.4
		c0-1.2-1.1-1.9-2.4-1.9c-1.7,0-2.9,1.3-2.9,3.3c0,2,1.3,3.2,2.9,3.2c1.4,0,2.4-0.8,2.4-2v-0.2h-2.7v-1h4.3v4.3H183
		c0-0.3,0.1-1,0.1-1.6h0c-0.3,1-1.3,1.7-2.9,1.7C177.8,119,175.9,117.3,175.9,114.6"/>
	<path class="st0" d="M189.7,110.1h3.8c2.3,0,3.4,1,3.4,2.5c0,1.1-0.5,1.9-1.5,2.1v0c1.1,0.2,1.5,0.9,1.5,2v2.1h-1.6v-2.1
		c0-0.9-0.4-1.4-1.5-1.4h-2.5v3.5h-1.6V110.1z M193.6,114.3c1.3,0,1.9-0.6,1.9-1.5c0-0.9-0.6-1.4-1.9-1.4h-2.2v2.9H193.6z"/>
	<path class="st0" d="M201.9,114.4c0-2.8,2-4.5,4.5-4.5c2.6,0,4.6,1.7,4.6,4.5c0,2.8-2,4.6-4.6,4.6
		C203.9,119,201.9,117.3,201.9,114.4 M209.4,114.4c0-2-1.3-3.1-2.9-3.1c-1.6,0-2.9,1.2-2.9,3.1c0,2,1.3,3.2,2.9,3.2
		C208.1,117.7,209.4,116.5,209.4,114.4"/>
	<path class="st0" d="M216.1,115.6v-5.5h1.6v5.4c0,1.3,0.9,2.1,2.3,2.1c1.4,0,2.3-0.8,2.3-2.1v-5.4h1.4v5.5c0,2.1-1.5,3.4-3.8,3.4
		C217.6,119,216.1,117.7,216.1,115.6"/>
	<path class="st0" d="M229.2,110.1h3.6c2.2,0,3.5,1.1,3.5,3.1c0,1.9-1.1,3-3.3,3h-2.2v2.7h-1.6V110.1z M232.9,115
		c1.2,0,1.8-0.6,1.8-1.8c0-1.2-0.7-1.8-2-1.8h-2v3.6H232.9z"/>
	<polygon class="st0" points="239.9,79.4 240.7,79.4 240.7,82.5 242.3,82.5 242.3,83.3 239.9,83.3 	"/>
	<polygon class="st0" points="243.3,79.4 244.2,79.4 244.2,82.5 245.7,82.5 245.7,83.3 243.3,83.3 	"/>
	<path class="st0" d="M249.3,80.4c-0.1-0.1-0.2-0.2-0.3-0.2c-0.1-0.1-0.3-0.1-0.4-0.1c-0.2,0-0.3,0-0.4,0.1
		c-0.1,0.1-0.3,0.1-0.4,0.3c-0.1,0.1-0.2,0.2-0.2,0.4c-0.1,0.2-0.1,0.3-0.1,0.5c0,0.2,0,0.3,0.1,0.5c0.1,0.2,0.1,0.3,0.2,0.4
		c0.1,0.1,0.2,0.2,0.3,0.3c0.1,0.1,0.3,0.1,0.4,0.1c0.2,0,0.3,0,0.5-0.1s0.2-0.2,0.3-0.3l0.7,0.5c-0.2,0.2-0.4,0.4-0.6,0.5
		c-0.2,0.1-0.5,0.2-0.8,0.2c-0.3,0-0.6,0-0.8-0.1c-0.3-0.1-0.5-0.2-0.7-0.4c-0.2-0.2-0.3-0.4-0.4-0.6c-0.1-0.2-0.2-0.5-0.2-0.8
		c0-0.3,0.1-0.6,0.2-0.8c0.1-0.3,0.2-0.5,0.4-0.6c0.2-0.2,0.4-0.3,0.7-0.4c0.3-0.1,0.5-0.1,0.8-0.1c0.1,0,0.2,0,0.3,0
		c0.1,0,0.2,0.1,0.3,0.1c0.1,0,0.2,0.1,0.3,0.2c0.1,0.1,0.2,0.2,0.3,0.3L249.3,80.4z"/>
</g>
</svg>
